<?xml version="1.0" standalone="no"?>
<!DOCTYPE svg PUBLIC "-//W3C//DTD SVG 20010904//EN"
 "http://www.w3.org/TR/2001/REC-SVG-20010904/DTD/svg10.dtd">
<svg version="1.0" xmlns="http://www.w3.org/2000/svg"
 width="260.000000pt" height="260.000000pt" viewBox="0 0 260.000000 260.000000"
 preserveAspectRatio="xMidYMid meet">
<metadata>
Created by potrace 1.14, written by Peter Selinger 2001-2017
</metadata>
<g transform="translate(0.000000,260.000000) scale(0.100000,-0.100000)"
fill="#000000" stroke="none">
<path d="M1160 2576 c-36 -7 -99 -26 -140 -43 -41 -17 -90 -34 -107 -37 -18
-4 -33 -12 -33 -17 0 -5 -3 -8 -7 -7 -15 5 -92 -25 -87 -33 3 -5 -1 -6 -8 -4
-17 7 -224 -117 -221 -132 1 -6 -4 -10 -11 -9 -21 2 -147 -114 -140 -127 4 -7
3 -9 -1 -4 -8 7 -105 -90 -105 -105 0 -4 -7 -13 -15 -21 -8 -8 -22 -28 -32
-45 -61 -102 -96 -165 -97 -180 0 -9 -5 -20 -9 -23 -11 -8 -79 -198 -81 -226
0 -12 -3 -19 -5 -17 -10 9 -30 -59 -42 -136 -14 -100 -2 -278 23 -324 7 -11
13 -27 14 -34 1 -7 11 -36 22 -65 11 -28 32 -86 47 -127 41 -110 129 -269 188
-337 14 -15 43 -48 64 -72 57 -66 173 -162 185 -155 6 4 8 3 5 -3 -11 -17 54
-54 70 -41 10 8 12 7 7 -5 -6 -16 28 -42 40 -30 3 3 6 1 6 -6 0 -15 117 -70
221 -105 41 -13 103 -36 139 -51 151 -60 352 -57 524 9 50 19 126 47 168 62
42 16 74 32 71 38 -3 5 -1 6 5 2 15 -9 95 32 87 44 -3 5 0 7 7 5 21 -8 157 87
246 172 76 73 192 208 192 225 0 4 14 28 32 54 37 55 99 194 92 206 -3 4 -1 8
5 8 5 0 13 15 16 32 4 18 18 59 31 90 13 32 21 65 17 74 -4 11 -2 15 4 11 15
-10 22 12 35 119 16 127 1 250 -45 365 -19 46 -38 99 -41 116 -4 18 -12 35
-17 38 -5 4 -9 14 -9 23 0 47 -172 338 -192 325 -7 -3 -8 -1 -4 6 18 29 -309
311 -361 311 -7 0 -13 4 -13 9 0 11 -120 64 -214 96 -39 13 -100 35 -134 49
-110 44 -262 56 -392 32z"/>
</g>
</svg>
