<svg xmlns="http://www.w3.org/2000/svg" xmlns:xlink="http://www.w3.org/1999/xlink" id="&#x421;&#x43B;&#x43E;&#x439;_1" x="0px" y="0px" viewBox="0 0 706.1 141.8" style="enable-background:new 0 0 706.1 141.8;" xml:space="preserve"><style type="text/css">	.st0{fill:#B80E80;}	.st1{fill:#FFED00;}</style><g>			<ellipse transform="matrix(0.1604 -0.9871 0.9871 0.1604 -10.7181 127.0466)" class="st0" cx="69.3" cy="69.8" rx="64.5" ry="64.5"></ellipse>	<g>		<g>			<path class="st1" d="M70.9,0C31.7,0,0,31.8,0,70.9s31.8,70.9,70.9,70.9c39.2,0,70.9-31.8,70.9-70.9C141.8,31.7,110.1,0,70.9,0z     M67.9,127C35.4,127,9,100.7,9,68.1C9,35.6,35.4,9.2,67.9,9.2c32.5,0,58.9,26.4,58.9,58.9C126.8,100.7,100.5,127,67.9,127z"></path>		</g>	</g>	<g>		<g>			<path class="st1" d="M45.8,79.8c-1.3,0-3.2,0-5-1.4c-2.2-4.4-1.3-22.1-1.3-23.4c0-0.8-0.3-0.8-0.8-0.8c-0.6,0-1.5,0.1-2.5,2.1    c-2,3.9-4.7,5.5-7.7,6.7c-1,0.4-0.7,1.5,0.2,1.4c1.9-0.2,4.2-0.9,5.9-2.2c0,2.4,0.5,11.5-0.9,16.2c-1.9,1.2-3.1,1.4-4.8,1.4    c-1.7,0-1.6,1.6,0.1,1.6c0.8,0,16,0,16.9,0C47.2,81.3,47.3,79.8,45.8,79.8z"></path>			<path class="st1" d="M85.6,70.9c1.4-3.1,4.2-5.7,5.5-7.2c2.7-2.9,4.5-4.4,4.5-6.6c0-1.7,0.3-3.4-2.1-3.4c-1.6,0-4.3,0-11.2,0    c-5.5,0-10.3,0-12.6,0c-2.6,0-0.3,3.9,0.8,6.3c0.5,1.1,0.9,2.4,2,2.4c1.2,0-0.3-2.2,1.1-3.1c0.9-0.5,2.7-0.5,6-0.5    c2.1,0,6.5,0,7.4,0c2,0-6.4,7-11.6,14.8c-1.1,1.7-1.1,3,0.6,3c12.3,0,15.9,6.5,17,11.3c1.8,8-5.8,16.7-14.4,15.5    c-10.3-1.4-11.2-8.1-12.9-8.1c-1.6,0-2,0.6-1.4,2.7c1.7,5.9,9.9,12.3,20.2,10.7c12.7-2,19-14.7,16.5-24.1    C99.9,80,96.4,72.2,85.6,70.9z"></path>			<path class="st1" d="M115.9,43c0-0.8-1.1-0.9-3.3-1.3c-6.4-1.3-9.1-3.1-11.7-6c-0.9-1-2.2-0.3-1.9,0.6c0.4,1.4,1.2,2.8,2.2,4.2    c-4.3,0.6-63.8,2.1-73.5-0.8c-1.5-0.5-3.4,1.1-3.4,3.3c0,2.2,1.9,3.8,3.4,3.3c9.7-3,69.2-1.5,73.5-0.9c-1,1.4-1.8,2.9-2.2,4.2    c-0.3,0.9,1,1.6,1.9,0.6c2.6-2.9,5.3-4.8,11.7-6C114.8,43.8,115.9,43.7,115.9,43z"></path>		</g>	</g>	<g>		<path class="st1" d="M71.6,84c0,0.1,0,0.2,0,0.3c-0.1,0.4-0.2,0.7-0.5,1.1c-0.6,0.8-1,1.6-1.4,2.5c-0.5,1.1-0.9,2.2-1.3,3.3   c-0.2,0.6-0.5,1.2-0.8,1.7c-0.4,0.6-0.9,0.9-1.6,0.9c-6.7,0-13.3,0-20,0c-0.3,0-0.6,0-1-0.1c-0.3-0.1-0.7-0.2-0.9-0.4   c-0.3-0.3-0.4-0.7-0.5-1.2c-0.1-0.5,0-1.1,0-1.6c0-0.3,0.1-0.6,0.1-0.9c0.2-0.7,0.6-1.3,1-1.9c0.8-1.1,1.7-2,2.6-3   c1-1,2-1.9,3.1-2.8c1.9-1.5,3.7-3.1,5.5-4.7c1.2-1.2,2.4-2.5,3.5-3.8c0.9-1.2,1.7-2.4,2.3-3.8c0.5-1.1,0.8-2.2,0.9-3.4   c0.1-1.1,0-2.1-0.2-3.1c-0.4-1.7-1.1-3.1-2.4-4.4c-1.2-1.2-2.6-1.8-4.3-1.9c-0.7-0.1-1.5,0-2.2,0.1c-1.2,0.1-2.3,0.4-3.3,0.9   c-2.4,1.1-4,2.9-4.7,5.5C45,64.2,45,65.3,45,66.4c0,0.9,0.2,1.7,0.5,2.5c0.5,1.3,1.4,2.3,2.7,2.9c0.7,0.3,1.4,0.5,2.2,0.5   c0.9,0.1,1.8,0,2.6-0.3c1.1-0.4,2-1.1,2.5-2.2c0.3-0.5,0.4-1,0.3-1.6c-0.1-0.4-0.3-0.6-0.7-0.5c-0.3,0-0.5,0.1-0.8,0.2   c-0.6,0.2-1.1,0.4-1.7,0.5c-0.7,0.1-1.3-0.1-1.8-0.7c-0.3-0.3-0.4-0.7-0.6-1.1c-0.2-0.7-0.3-1.4,0.1-2.1c0.3-0.5,0.7-0.9,1.2-1.2   c0.8-0.4,1.6-0.6,2.5-0.7c1.4,0,2.5,0.5,3.4,1.6c0.7,0.9,1.1,2,1.1,3.2c0,0.9-0.1,1.8-0.5,2.7c-0.9,2.2-2.4,3.6-4.7,4.2   c-1.4,0.4-2.8,0.3-4.2,0.1c-2.8-0.5-4.8-2.1-6.1-4.6c-0.7-1.5-1-3-1-4.6c0-0.6,0.1-1.1,0.2-1.7c0.2-1.2,0.5-2.4,1.1-3.5   c0.8-1.7,2-3.2,3.5-4.3c1.3-1,2.7-1.6,4.3-2c1.1-0.3,2.2-0.5,3.3-0.5c0.5,0,1,0,1.5,0c0,0,0,0,0,0c1,0,1.9,0.1,2.9,0.3   c1.3,0.2,2.6,0.6,3.8,1.2c1.1,0.6,2.1,1.3,3,2.3c1.2,1.3,2,2.9,2.5,4.7c0.4,1.3,0.5,2.7,0.5,4.1c0,0.8-0.1,1.6-0.3,2.3   c-0.3,1.3-0.8,2.6-1.4,3.7c-0.8,1.6-1.7,3-2.8,4.4c-1.3,1.7-2.7,3.2-4.2,4.6c-1.3,1.2-2.6,2.5-3.8,3.8c-0.7,0.7-1.3,1.5-1.8,2.3   c-0.2,0.3-0.4,0.6-0.5,1c-0.1,0.5,0,0.7,0.5,0.7c2.4,0,4.7,0,7.1,0c1.1,0,2.1-0.1,3.1-0.3c1-0.2,1.9-0.7,2.6-1.4   c0.5-0.6,1-1.2,1.5-1.8c0.3-0.4,0.6-0.7,1-1c0.3-0.2,0.6-0.4,1-0.3C71.2,83.4,71.4,83.5,71.6,84z"></path>	</g></g><g>	<path class="st1" d="M177.3,47.7c0.2,3.9,0.9,7.2,1.8,9.8c-5.1,1.3-10.8,2.9-13.2,2.9c-4.9,0-5.4-5.4-5.6-10.7V24.6  c-2.3,0-3.2,0.1-5.3,0.4c-1.5-2.1-2.3-4.6-2.3-6.6c0-5.6,5.3-6.2,9.8-6.2h16.1c16.2,0.2,23.1,6.3,23.1,16.5  c0,9.6-5.3,16.8-19.9,16.8c-1.4,0-3.7-0.2-4.6-0.2V47.7z M185.2,29.7c0-3.9-2.5-5.1-5.3-5.1h-2.6v10.8c0.5,0.1,1.3,0.1,2,0.1  C182.6,35.4,185.2,33.9,185.2,29.7z"></path>	<path class="st1" d="M208.5,24.7c-0.9-1.9-1.8-4.4-1.8-6.6c0-3.7,2.6-6,9.8-6h12.7c4.7,0,7.2,1.8,8.9,6.8l10.4,31.3  c0.8,2.4,1.9,5.4,3,7.7c-3.9,1.3-8.7,2.6-11.8,2.6c-3.3,0-5.3-1.5-6.8-6.2l-0.9-2.8h-15.4l-3.2,8.4h-7.7c-5.5,0-5.3-5.1-3.7-8.6  l8.9-21.3c1.1-2.5,2-4.3,3-5.6C211.9,24.5,210.3,24.5,208.5,24.7z M220.8,39.8c-0.3,0.9,0.1,1.2,0.8,1.2h6.8l-3.6-11.5L220.8,39.8z  "></path>	<path class="st1" d="M268.8,39.8c-2.8,0-3.7-1.7-3.7-3.8v-1.7c0-2.1,0.9-3.8,3.7-3.8h3.9c2.1,0,3.4-0.6,3.4-2.4  c0-1.8-1.6-2.5-4.3-2.5c-4.2,0-8.5,1.2-12.2,2.9c-3-1.3-4.4-3.9-4.4-6.7c0-6.5,6.5-9.7,17.9-9.7c14.8,0,20.8,4.6,20.8,12.3  c0,4.4-2.2,8.9-8.2,10.5c7.3,1.1,10.3,5.8,10.3,11.3c0,10.8-10.4,14.5-22.9,14.5c-9.2,0-19.4-2.6-19.4-11.5c0-2.6,0.8-5.7,3-7.4  c3.2,2.2,9.6,3.9,15,3.9c3.3,0,5.2-0.8,5.2-3.2c0-1.7-1-2.7-4.3-2.7H268.8z"></path>	<path class="st1" d="M308.9,45.3c-3,0-5.4,0.3-7.5,1.3c-0.7-1.8-1.5-5.6-1.5-8c0-4.7,2.5-6,7.9-6.1h12.7c3,0,5.4-0.3,7.5-1.3  c0.7,1.8,1.5,5.6,1.5,8c0,4.7-2.5,6-7.8,6.1H308.9z"></path>	<path class="st1" d="M389.4,61.5c0,2.6,0.4,5,1.1,7c-4.9,1.3-7.2,2-9.4,2c-4.7,0-5.7-3.9-5.7-8.6v-2h-25.1c-0.6,0-0.8,0.3-0.8,1.1  v0.6c0,2.5,0.4,4.9,1.1,6.8c-4.9,1.3-7.2,2-9.4,2c-4.7,0-5.7-3.9-5.7-8.6V54c0-3.5,1-5.9,4.5-5.9h0.8c4.4-4.6,6.5-15.5,7-23.8  c-5.3-1-6.6-4.4-6.6-8.4c0-1.3,0.1-2.6,0.4-3.7h37.1c4.9,0,5.4,5.4,5.6,10.7v25.2h0.7c3.5,0,4.5,2.4,4.5,5.9V61.5z M366.2,48.1  c0.8,0,1-0.3,1-1.3V24.2h-5c-0.5,0-0.8,0.1-0.8,0.8c-0.8,11.7-2.9,19.6-6.1,23H366.2z"></path>	<path class="st1" d="M399.4,52.4V24.6c-2.3,0-3.2,0.1-5.3,0.4c-1.5-2.1-2.2-4.6-2.2-6.6c0-5.6,5.3-6.2,9.8-6.2h16.5  c14.9,0,20.1,5,20.1,12.4c0,3.9-1.8,7.7-5.7,9.4c5.8,1.4,8.3,5.8,8.3,10.5c0,15.3-19.9,15.6-30.8,15.6  C404.1,60.1,399.4,59.7,399.4,52.4z M416.1,24.6v8h2.4c3.4,0,5.1-1.5,5.1-4.4c0-2.9-2.4-3.7-4.7-3.7H416.1z M416.2,40.6v8.3  c0.5,0.1,1.7,0.1,2.3,0.1c3.9,0,6-1.3,6-4.4c0-3.1-2.5-4-5.2-4H416.2z"></path>	<path class="st1" d="M452,24.7c-0.9-1.9-1.8-4.4-1.8-6.6c0-3.7,2.6-6,9.8-6h12.7c4.7,0,7.2,1.8,8.9,6.8L492,50.2  c0.8,2.4,1.9,5.4,3,7.7c-3.9,1.3-8.7,2.6-11.8,2.6c-3.3,0-5.3-1.5-6.8-6.2l-0.9-2.8H460l-3.2,8.4H449c-5.5,0-5.3-5.1-3.7-8.6  l8.9-21.3c1.1-2.5,2-4.3,3-5.6C455.5,24.5,453.8,24.5,452,24.7z M464.4,39.8c-0.3,0.9,0.1,1.2,0.8,1.2h6.8l-3.6-11.5L464.4,39.8z"></path>	<path class="st1" d="M503.2,45.3c-3,0-5.4,0.3-7.5,1.3c-0.7-1.8-1.5-5.6-1.5-8c0-4.7,2.5-6,7.9-6.1h12.7c3,0,5.4-0.3,7.5-1.3  c0.7,1.8,1.5,5.6,1.5,8c0,4.7-2.5,6-7.8,6.1H503.2z"></path>	<path class="st1" d="M559.9,47.7c0.2,3.9,0.9,7.2,1.8,9.8c-5.1,1.3-10.8,2.9-13.2,2.9c-4.9,0-5.4-5.4-5.6-10.7V27.1  c-0.8-0.1-1.5-0.1-2.1-0.1c-3.6,0-6.6,1-9.1,2.3c-1.8-3.2-3-6.3-3-9.5c0-5.3,2.4-8,10.8-8c5.6,0,15.7,0.9,21.2,0.9  c4.2,0,7-0.6,10-1.7c1.6,2.7,3.1,5.6,3.1,8.9c0,4.8-2.1,7.9-11.5,7.9h-1.5c-0.6,0.1-0.8,0.4-0.8,1.1V47.7z"></path>	<path class="st1" d="M602.6,47.7c0.2,3.9,0.9,7.2,1.8,9.8c-5.1,1.3-10.8,2.9-13.2,2.9c-4.9,0-5.4-5.4-5.6-10.7V24.6  c-2.3,0-3.2,0.1-5.3,0.4c-1.5-2.1-2.2-4.6-2.2-6.6c0-5.6,5.3-6.2,9.8-6.2H604c16.2,0.2,23.1,6.3,23.1,16.5  c0,9.6-5.3,16.8-19.9,16.8c-1.4,0-3.7-0.2-4.6-0.2V47.7z M610.5,29.7c0-3.9-2.5-5.1-5.3-5.1h-2.6v10.8c0.5,0.1,1.3,0.1,2,0.1  C607.9,35.4,610.5,33.9,610.5,29.7z"></path>	<path class="st1" d="M665.3,14.6c3.4-0.8,9.1-2.5,11.5-2.5c4.9,0,5.4,5.4,5.6,10.7v24.9c0.2,3.9,0.9,7.2,1.8,9.8  c-5.1,1.3-10.7,2.9-13.1,2.9c-4.9,0-5.4-5.4-5.6-10.7V34.5l-11.7,23.4c-3.8,0.9-9.2,2.5-11.7,2.5c-4.9,0-5.4-5.4-5.6-10.7v-24  c-4.7-0.8-6.5-5.1-6.5-9.2c0-0.8,0.1-1.7,0.2-2.5c7.5-0.4,11.5-1.3,18-2c4.9,0,4.9,4.9,4.9,9v18.2L665.3,14.6z"></path>	<path class="st1" d="M688.8,54.2c0-3.8,3.1-7.9,8.8-7.9c5.1,0,7.5,2.7,7.5,6.5c0,3.8-3.1,7.9-8.8,7.9  C691.1,60.7,688.8,58,688.8,54.2z M703.4,38.7c-0.4,3.9-2.9,5.1-5.8,5.1c-2.2,0-4.8-0.7-7-1.3c0.1-3.8-1.5-18.2-1.5-21.5  c0-6,3.7-7.7,8.4-7.7c2.8,0,6,0.7,8.6,1.7C704.9,17.3,704.5,24.2,703.4,38.7z"></path></g><g>	<path class="st1" d="M157.1,78.7h4.4v15h6.6v-15h4.5v15h2.8l-0.3,7.8H171v-4.4h-13.9V78.7z"></path>	<path class="st1" d="M183.8,97.3c-2.1,0-3.8-0.6-5.1-1.9c-1.3-1.3-1.9-2.9-1.9-4.9v-0.4c0-1.4,0.3-2.6,0.8-3.7  c0.5-1.1,1.3-1.9,2.3-2.5c1-0.6,2.2-0.9,3.5-0.9c1.9,0,3.4,0.6,4.6,1.8c1.1,1.2,1.7,2.9,1.7,5v1.7h-8.5c0.2,0.8,0.5,1.4,1,1.8  c0.5,0.4,1.2,0.7,2,0.7c1.3,0,2.4-0.5,3.2-1.4l1.9,2.3c-0.5,0.7-1.3,1.3-2.3,1.8C186,97.1,184.9,97.3,183.8,97.3z M183.3,86.4  c-1.2,0-2,0.8-2.2,2.5h4.3v-0.3c0-0.7-0.2-1.2-0.5-1.6C184.5,86.6,184,86.4,183.3,86.4z"></path>	<path class="st1" d="M203.5,97.1h-4.3V92h-3.7v5.1h-4.3V83.4h4.3v5.3h3.7v-5.3h4.3V97.1z"></path>	<path class="st1" d="M217.8,86.7h-4.3v10.4h-4.3V86.7H205v-3.3h12.9V86.7z"></path>	<path class="st1" d="M232.1,90.3c0,2.1-0.5,3.8-1.4,5.1c-1,1.3-2.2,1.9-3.9,1.9c-1.3,0-2.3-0.5-3.1-1.4v6.4h-4.3V83.4h4l0.1,1.3  c0.8-1,1.9-1.5,3.2-1.5c1.7,0,3,0.6,3.9,1.9c0.9,1.2,1.4,3,1.4,5.1V90.3z M227.8,90.1c0-2.4-0.7-3.6-2.1-3.6c-1,0-1.7,0.4-2,1.1  v5.4c0.4,0.8,1.1,1.1,2,1.1c1.4,0,2.1-1.2,2.1-3.5V90.1z"></path>	<path class="st1" d="M239.9,90.1c0-1.4,0.3-2.6,0.8-3.6c0.5-1.1,1.3-1.9,2.3-2.5c1-0.6,2.2-0.9,3.5-0.9c2,0,3.7,0.6,4.8,1.9  c1.2,1.3,1.8,3,1.8,5.2v0.2c0,2.1-0.6,3.8-1.8,5.1c-1.2,1.3-2.8,1.9-4.8,1.9c-1.9,0-3.5-0.6-4.7-1.8c-1.2-1.2-1.8-2.8-1.9-4.7  L239.9,90.1z M244.2,90.4c0,1.3,0.2,2.2,0.6,2.8c0.4,0.6,1,0.9,1.8,0.9c1.5,0,2.3-1.2,2.3-3.5v-0.4c0-2.5-0.8-3.7-2.4-3.7  c-1.4,0-2.2,1.1-2.3,3.2L244.2,90.4z"></path>	<path class="st1" d="M267,83.4v13.7h-4.3V86.7h-2.6l-0.2,4.2c-0.2,2.1-0.6,3.6-1.4,4.7c-0.8,1-1.9,1.5-3.5,1.6h-1.3l-0.1-3.3  l0.4-0.1c0.6-0.1,1-0.4,1.3-1.1c0.3-0.7,0.4-1.7,0.5-3.1l0.3-6.1H267z"></path>	<path class="st1" d="M277.3,83.4h4.3v13.7h-4.3v-8l-3.8,8h-4.3V83.4h4.3v7.9L277.3,83.4z"></path>	<path class="st1" d="M292.4,92.4l3.1-9h5.4v13.7h-4.3v-7.6l-2.8,7.6H291l-2.6-7.2v7.2h-4.3V83.4h5.2L292.4,92.4z"></path>	<path class="st1" d="M316,97.1h-4.3V86.7h-3.8v10.4h-4.3V83.4H316V97.1z"></path>	<path class="st1" d="M326.2,83.4h4.3v13.7h-4.3v-8l-3.8,8h-4.3V83.4h4.3v7.9L326.2,83.4z"></path>	<path class="st1" d="M340.5,97.1c-0.2-0.3-0.3-0.7-0.4-1.2c-0.8,1-1.9,1.5-3.3,1.5c-1.3,0-2.4-0.4-3.3-1.2s-1.4-1.8-1.4-2.9  c0-1.5,0.5-2.6,1.6-3.4c1.1-0.8,2.7-1.1,4.8-1.1h1.3V88c0-1.3-0.5-1.9-1.6-1.9c-1,0-1.5,0.5-1.5,1.5h-4.3c0-1.3,0.6-2.4,1.7-3.2  c1.1-0.8,2.6-1.2,4.3-1.2c1.7,0,3.1,0.4,4.1,1.3c1,0.9,1.5,2,1.6,3.5V94c0,1.3,0.2,2.2,0.6,2.9v0.2H340.5z M337.8,94.3  c0.5,0,1-0.1,1.3-0.3c0.3-0.2,0.6-0.5,0.8-0.8V91h-1.2c-1.5,0-2.2,0.7-2.2,2c0,0.4,0.1,0.7,0.4,0.9  C337.1,94.2,337.4,94.3,337.8,94.3z"></path>	<path class="st1" d="M346.9,93.8c0.7-0.7,1.2-1.4,1.5-2c0.3-0.7,0.5-1.5,0.5-2.4l0-0.9l0.1-5.1h10.7v10.4h2v7.4h-4.3v-4.1H350v4.1  h-4.4l0-7.4H346.9z M351.8,93.8h3.6v-7.1h-2.2l0,1.1C353.2,90.3,352.7,92.3,351.8,93.8z"></path>	<path class="st1" d="M375.1,97.1h-4.3V92h-3.7v5.1h-4.3V83.4h4.3v5.3h3.7v-5.3h4.3V97.1z"></path>	<path class="st1" d="M376.9,90.1c0-1.4,0.3-2.6,0.8-3.6c0.5-1.1,1.3-1.9,2.3-2.5c1-0.6,2.2-0.9,3.5-0.9c2,0,3.7,0.6,4.8,1.9  c1.2,1.3,1.8,3,1.8,5.2v0.2c0,2.1-0.6,3.8-1.8,5.1c-1.2,1.3-2.8,1.9-4.8,1.9c-1.9,0-3.5-0.6-4.7-1.8c-1.2-1.2-1.8-2.8-1.9-4.7  L376.9,90.1z M381.2,90.4c0,1.3,0.2,2.2,0.6,2.8c0.4,0.6,1,0.9,1.8,0.9c1.5,0,2.3-1.2,2.3-3.5v-0.4c0-2.5-0.8-3.7-2.4-3.7  c-1.4,0-2.2,1.1-2.3,3.2L381.2,90.4z"></path>	<path class="st1" d="M400,83.4h4.3v13.7H400v-8l-3.8,8h-4.3V83.4h4.3v7.9L400,83.4z M402.9,77.6c0,1.2-0.4,2.1-1.3,2.8  c-0.9,0.7-2,1.1-3.4,1.1c-1.4,0-2.6-0.4-3.4-1.1c-0.9-0.7-1.3-1.7-1.3-2.8h2.9c0,0.5,0.2,0.9,0.5,1.2c0.3,0.3,0.8,0.4,1.3,0.4  c0.6,0,1-0.1,1.3-0.4c0.3-0.3,0.5-0.7,0.5-1.2H402.9z"></path>	<path class="st1" d="M421.5,92.4l3.1-9h5.4v13.7h-4.3v-7.6l-2.8,7.6h-2.8l-2.6-7.2v7.2h-4.3V83.4h5.2L421.5,92.4z"></path>	<path class="st1" d="M440.6,97.1c-0.2-0.3-0.3-0.7-0.4-1.2c-0.8,1-1.9,1.5-3.3,1.5c-1.3,0-2.4-0.4-3.3-1.2  c-0.9-0.8-1.4-1.8-1.4-2.9c0-1.5,0.5-2.6,1.6-3.4c1.1-0.8,2.7-1.1,4.8-1.1h1.3V88c0-1.3-0.5-1.9-1.6-1.9c-1,0-1.5,0.5-1.5,1.5h-4.3  c0-1.3,0.6-2.4,1.7-3.2c1.1-0.8,2.6-1.2,4.3-1.2c1.7,0,3.1,0.4,4.1,1.3c1,0.9,1.5,2,1.6,3.5V94c0,1.3,0.2,2.2,0.6,2.9v0.2H440.6z   M437.9,94.3c0.5,0,1-0.1,1.3-0.3c0.3-0.2,0.6-0.5,0.8-0.8V91h-1.2c-1.5,0-2.2,0.7-2.2,2c0,0.4,0.1,0.7,0.4,0.9  C437.2,94.2,437.5,94.3,437.9,94.3z"></path>	<path class="st1" d="M458.4,86.7h-4.3v10.4h-4.3V86.7h-4.2v-3.3h12.8V86.7z"></path>	<path class="st1" d="M465.8,97.3c-2.1,0-3.8-0.6-5.1-1.9c-1.3-1.3-1.9-2.9-1.9-4.9v-0.4c0-1.4,0.3-2.6,0.8-3.7  c0.5-1.1,1.3-1.9,2.3-2.5c1-0.6,2.2-0.9,3.5-0.9c1.9,0,3.4,0.6,4.6,1.8c1.1,1.2,1.7,2.9,1.7,5v1.7h-8.5c0.2,0.8,0.5,1.4,1,1.8  c0.5,0.4,1.2,0.7,2,0.7c1.3,0,2.4-0.5,3.2-1.4l1.9,2.3c-0.5,0.7-1.3,1.3-2.3,1.8C468,97.1,466.9,97.3,465.8,97.3z M465.3,86.4  c-1.2,0-2,0.8-2.2,2.5h4.3v-0.3c0-0.7-0.2-1.2-0.5-1.6C466.5,86.6,466,86.4,465.3,86.4z"></path>	<path class="st1" d="M481.8,92.4l3.1-9h5.4v13.7H486v-7.6l-2.8,7.6h-2.8l-2.6-7.2v7.2h-4.3V83.4h5.2L481.8,92.4z"></path>	<path class="st1" d="M500.9,97.1c-0.2-0.3-0.3-0.7-0.4-1.2c-0.8,1-1.9,1.5-3.3,1.5c-1.3,0-2.4-0.4-3.3-1.2  c-0.9-0.8-1.4-1.8-1.4-2.9c0-1.5,0.5-2.6,1.6-3.4c1.1-0.8,2.7-1.1,4.8-1.1h1.3V88c0-1.3-0.5-1.9-1.6-1.9c-1,0-1.5,0.5-1.5,1.5h-4.3  c0-1.3,0.6-2.4,1.7-3.2c1.1-0.8,2.6-1.2,4.3-1.2c1.7,0,3.1,0.4,4.1,1.3c1,0.9,1.5,2,1.6,3.5V94c0,1.3,0.2,2.2,0.6,2.9v0.2H500.9z   M498.2,94.3c0.5,0,1-0.1,1.3-0.3c0.3-0.2,0.6-0.5,0.8-0.8V91H499c-1.5,0-2.2,0.7-2.2,2c0,0.4,0.1,0.7,0.4,0.9  C497.5,94.2,497.8,94.3,498.2,94.3z"></path>	<path class="st1" d="M518.7,86.7h-4.3v10.4h-4.3V86.7h-4.2v-3.3h12.8V86.7z"></path>	<path class="st1" d="M528.2,83.4h4.3v13.7h-4.3v-8l-3.8,8h-4.3V83.4h4.3v7.9L528.2,83.4z"></path>	<path class="st1" d="M540.6,92.3h-1.3v4.8h-4.3V83.4h4.3v4.9h1.2l2.2-4.9h5.5l-4,6.3h0l4.4,7.4h-5.8L540.6,92.3z"></path>	<path class="st1" d="M557.6,83.4h4.3v13.7h-4.3v-8l-3.8,8h-4.3V83.4h4.3v7.9L557.6,83.4z"></path>	<path class="st1" d="M565.7,102l-2.2-1l0.4-0.9c0.6-1.1,0.9-2.1,0.9-3.1v-3.2h3.4l0,2.7c0,1-0.3,2-0.7,3  C567,100.6,566.4,101.4,565.7,102z"></path>	<path class="st1" d="M156.7,121.4c0-2.2,0.5-3.9,1.4-5.2c0.9-1.3,2.2-1.9,3.7-1.9c0.5,0,1.1,0.1,1.6,0.3v-5.8h4.3v5.8  c0.5-0.2,1-0.3,1.6-0.3c1.6,0,2.8,0.6,3.7,1.9c0.9,1.3,1.4,3.1,1.4,5.5c0,2.1-0.5,3.8-1.4,5s-2.2,1.8-3.7,1.8  c-0.6,0-1.1-0.1-1.6-0.3v5.3h-4.3v-5.3c-0.5,0.2-1.1,0.3-1.6,0.3c-1.6,0-2.8-0.6-3.7-1.8c-0.9-1.2-1.4-2.9-1.4-5.1V121.4z   M161,121.6c0,2.3,0.6,3.5,1.8,3.5h0.3l0.3,0v-7.5l-0.5,0C161.6,117.5,161,118.9,161,121.6z M170.1,121.4c0-1.2-0.2-2.1-0.5-2.8  s-0.8-1-1.4-1l-0.5,0v7.6l0.6,0c1.1,0,1.8-1,1.8-2.9L170.1,121.4z"></path>	<path class="st1" d="M184.2,114.5h4.3v13.7h-4.3v-8l-3.8,8h-4.3v-13.7h4.3v7.9L184.2,114.5z"></path>	<path class="st1" d="M197.8,118.6c0-0.9-0.5-1.3-1.4-1.3c-1.1,0-1.6,0.4-1.6,1.2h-4.3c0-1.2,0.5-2.3,1.6-3c1-0.8,2.4-1.2,4.1-1.2  c1.8,0,3.3,0.3,4.4,1c1.1,0.7,1.6,1.7,1.6,2.9c0,0.6-0.2,1.2-0.6,1.7c-0.4,0.5-0.9,0.9-1.5,1.2c1.6,0.5,2.3,1.6,2.3,3.2  c0,1.2-0.6,2.2-1.7,3c-1.1,0.8-2.6,1.1-4.5,1.1c-1.7,0-3.1-0.4-4.2-1.2c-1.1-0.8-1.6-1.8-1.6-3.1h4.3c0,0.3,0.1,0.6,0.4,0.9  c0.3,0.2,0.8,0.4,1.4,0.4c0.5,0,0.9-0.1,1.2-0.4c0.3-0.3,0.4-0.6,0.4-1.1c0-1-0.5-1.5-1.6-1.5h-1.9v-2.5h1.7  C197.3,119.9,197.8,119.5,197.8,118.6z"></path>	<path class="st1" d="M212.1,114.5h4.3v13.7h-4.3v-8l-3.8,8H204v-13.7h4.3v7.9L212.1,114.5z"></path>	<path class="st1" d="M224.5,123.4h-1.3v4.8h-4.3v-13.7h4.3v4.9h1.2l2.2-4.9h5.5l-4,6.3h0l4.4,7.4h-5.8L224.5,123.4z"></path>	<path class="st1" d="M241.5,114.5h4.3v13.7h-4.3v-8l-3.8,8h-4.3v-13.7h4.3v7.9L241.5,114.5z"></path>	<path class="st1" d="M262.4,114.5h4.3v13.7h-4.3v-8l-3.8,8h-4.3v-13.7h4.3v7.9L262.4,114.5z"></path>	<path class="st1" d="M287.7,128.2h-4.3v-10.4h-3.8v10.4h-4.3v-13.7h12.3V128.2z"></path>	<path class="st1" d="M302.7,121.4c0,2.1-0.5,3.8-1.4,5.1c-1,1.3-2.2,1.9-3.9,1.9c-1.3,0-2.3-0.5-3.1-1.4v6.4H290v-18.9h4l0.1,1.3  c0.8-1,1.9-1.5,3.2-1.5c1.7,0,3,0.6,3.9,1.9c0.9,1.2,1.4,3,1.4,5.1V121.4z M298.4,121.2c0-2.4-0.7-3.6-2.1-3.6c-1,0-1.7,0.4-2,1.1  v5.4c0.4,0.8,1.1,1.1,2,1.1c1.4,0,2.1-1.2,2.1-3.5V121.2z"></path>	<path class="st1" d="M304,121.2c0-1.4,0.3-2.6,0.8-3.6c0.5-1.1,1.3-1.9,2.3-2.5c1-0.6,2.2-0.9,3.5-0.9c2,0,3.7,0.6,4.8,1.9  c1.2,1.3,1.8,3,1.8,5.2v0.2c0,2.1-0.6,3.8-1.8,5.1c-1.2,1.3-2.8,1.9-4.8,1.9c-1.9,0-3.5-0.6-4.7-1.8c-1.2-1.2-1.8-2.8-1.9-4.7  L304,121.2z M308.3,121.5c0,1.3,0.2,2.2,0.6,2.8c0.4,0.6,1,0.9,1.8,0.9c1.5,0,2.3-1.2,2.3-3.5v-0.4c0-2.5-0.8-3.7-2.4-3.7  c-1.4,0-2.2,1.1-2.3,3.2L308.3,121.5z"></path>	<path class="st1" d="M328.7,117.8h-5.4v10.4H319v-13.7h9.7V117.8z"></path>	<path class="st1" d="M342.6,121.4c0,2.1-0.5,3.8-1.4,5.1c-1,1.3-2.2,1.9-3.9,1.9c-1.3,0-2.3-0.5-3.1-1.4v6.4H330v-18.9h4l0.1,1.3  c0.8-1,1.9-1.5,3.2-1.5c1.7,0,3,0.6,3.9,1.9c0.9,1.2,1.4,3,1.4,5.1V121.4z M338.4,121.2c0-2.4-0.7-3.6-2.1-3.6c-1,0-1.7,0.4-2,1.1  v5.4c0.4,0.8,1.1,1.1,2,1.1c1.4,0,2.1-1.2,2.1-3.5V121.2z"></path>	<path class="st1" d="M352.2,128.2c-0.2-0.3-0.3-0.7-0.4-1.2c-0.8,1-1.9,1.5-3.3,1.5c-1.3,0-2.4-0.4-3.3-1.2  c-0.9-0.8-1.4-1.8-1.4-2.9c0-1.5,0.5-2.6,1.6-3.4c1.1-0.8,2.7-1.1,4.8-1.1h1.3v-0.7c0-1.3-0.5-1.9-1.6-1.9c-1,0-1.5,0.5-1.5,1.5  h-4.3c0-1.3,0.6-2.4,1.7-3.2c1.1-0.8,2.6-1.2,4.3-1.2c1.7,0,3.1,0.4,4.1,1.3c1,0.9,1.5,2,1.6,3.5v6.1c0,1.3,0.2,2.2,0.6,2.9v0.2  H352.2z M349.6,125.4c0.5,0,1-0.1,1.3-0.3c0.3-0.2,0.6-0.5,0.8-0.8v-2.2h-1.2c-1.5,0-2.2,0.7-2.2,2c0,0.4,0.1,0.7,0.4,0.9  C348.8,125.3,349.2,125.4,349.6,125.4z"></path>	<path class="st1" d="M366.8,123.5l3.1-9h5.4v13.7H371v-7.6l-2.8,7.6h-2.8l-2.6-7.2v7.2h-4.3v-13.7h5.2L366.8,123.5z"></path>	<path class="st1" d="M386.7,123.5l3.1-9h5.4v13.7h-4.3v-7.6l-2.8,7.6h-2.8l-2.6-7.2v7.2h-4.3v-13.7h5.2L386.7,123.5z"></path>	<path class="st1" d="M406,114.5h4.3v13.7H406v-8l-3.8,8h-4.3v-13.7h4.3v7.9L406,114.5z"></path>	<path class="st1" d="M425.3,121.4c0,2.1-0.5,3.8-1.4,5.1c-1,1.3-2.3,1.9-3.9,1.9c-1.3,0-2.3-0.5-3.1-1.4v6.4h-4.3v-18.9h4l0.1,1.3  c0.8-1,1.9-1.5,3.2-1.5c1.7,0,3,0.6,3.9,1.9c0.9,1.2,1.4,3,1.4,5.1V121.4z M421,121.2c0-2.4-0.7-3.6-2.1-3.6c-1,0-1.7,0.4-2,1.1  v5.4c0.4,0.8,1.1,1.1,2.1,1.1c1.4,0,2.1-1.2,2.1-3.5V121.2z"></path>	<path class="st1" d="M426.6,121.2c0-1.4,0.3-2.6,0.8-3.6c0.5-1.1,1.3-1.9,2.3-2.5c1-0.6,2.2-0.9,3.5-0.9c2,0,3.7,0.6,4.8,1.9  c1.2,1.3,1.8,3,1.8,5.2v0.2c0,2.1-0.6,3.8-1.8,5.1c-1.2,1.3-2.8,1.9-4.8,1.9c-1.9,0-3.5-0.6-4.7-1.8c-1.2-1.2-1.8-2.8-1.9-4.7  L426.6,121.2z M430.9,121.5c0,1.3,0.2,2.2,0.6,2.8c0.4,0.6,1,0.9,1.8,0.9c1.5,0,2.3-1.2,2.3-3.5v-0.4c0-2.5-0.8-3.7-2.4-3.7  c-1.4,0-2.2,1.1-2.3,3.2L430.9,121.5z"></path>	<path class="st1" d="M442,128.2v-13.7h5.9c1.9,0,3.3,0.3,4.3,1c1,0.7,1.5,1.6,1.5,2.8c0,0.6-0.2,1.2-0.7,1.7  c-0.4,0.5-1.1,0.9-1.9,1.2c1.1,0.2,1.9,0.5,2.5,1.1c0.6,0.5,0.9,1.2,0.9,2c0,1.3-0.5,2.3-1.5,2.9c-1,0.7-2.4,1-4.2,1H442z   M446.2,120h1.8c0.5,0,0.9-0.1,1.1-0.3c0.2-0.2,0.3-0.4,0.3-0.8c0-0.4-0.1-0.7-0.4-0.9c-0.3-0.2-0.6-0.3-1.2-0.3h-1.6V120z   M446.2,122.6v2.3h2.5c0.5,0,0.9-0.1,1.1-0.3c0.2-0.2,0.3-0.5,0.3-0.8c0-0.8-0.4-1.1-1.3-1.2H446.2z"></path>	<path class="st1" d="M463.9,128.2c-0.2-0.3-0.3-0.7-0.4-1.2c-0.8,1-1.9,1.5-3.3,1.5c-1.3,0-2.4-0.4-3.3-1.2  c-0.9-0.8-1.4-1.8-1.4-2.9c0-1.5,0.5-2.6,1.6-3.4c1.1-0.8,2.7-1.1,4.8-1.1h1.3v-0.7c0-1.3-0.5-1.9-1.6-1.9c-1,0-1.5,0.5-1.5,1.5  h-4.3c0-1.3,0.6-2.4,1.7-3.2c1.1-0.8,2.6-1.2,4.3-1.2c1.7,0,3.1,0.4,4.1,1.3c1,0.9,1.5,2,1.6,3.5v6.1c0,1.3,0.2,2.2,0.6,2.9v0.2  H463.9z M461.3,125.4c0.5,0,1-0.1,1.3-0.3c0.3-0.2,0.6-0.5,0.8-0.8v-2.2h-1.2c-1.5,0-2.2,0.7-2.2,2c0,0.4,0.1,0.7,0.4,0.9  C460.5,125.3,460.9,125.4,461.3,125.4z"></path>	<path class="st1" d="M482.2,128.2h-4.3v-5.1h-3.7v5.1h-4.3v-13.7h4.3v5.3h3.7v-5.3h4.3V128.2z"></path>	<path class="st1" d="M492.5,114.5h4.3v13.7h-4.3v-8l-3.8,8h-4.3v-13.7h4.3v7.9L492.5,114.5z"></path>	<path class="st1" d="M510.9,114.5v13.7h-4.2v-4.5H505l-2.4,4.5h-4.3l2.8-5.2c-0.8-0.4-1.4-0.9-1.9-1.5c-0.4-0.6-0.7-1.4-0.7-2.2  c0-1.4,0.6-2.5,1.7-3.4c1.1-0.9,2.6-1.3,4.4-1.3H510.9z M502.9,119.4c0,0.4,0.2,0.8,0.5,1.1c0.3,0.3,0.8,0.5,1.3,0.5h2v-3.1h-1.9  c-0.6,0-1,0.2-1.4,0.5C503.1,118.6,502.9,118.9,502.9,119.4z"></path></g></svg>